<?xml version="1.0" encoding="utf-8"?>
<!-- Generator: Adobe Illustrator 21.0.0, SVG Export Plug-In . SVG Version: 6.00 Build 0)  -->
<svg version="1.1" id="Layer_1" xmlns="http://www.w3.org/2000/svg" xmlns:xlink="http://www.w3.org/1999/xlink" x="0px" y="0px"
	 viewBox="0 0 300 300" style="enable-background:new 0 0 300 300;" xml:space="preserve">
<style type="text/css">
	.st0{fill-rule:evenodd;clip-rule:evenodd;fill:#1EAFDB;}
	.st1{fill:#1EAFDB;}
</style>
<g>
	<path class="st0" d="M150,0C67.2,0,0,67.2,0,150c0,82.8,67.2,150,150,150c82.8,0,150-67.2,150-150C300,67.2,232.9,0,150,0z
		 M269.7,149.5c0,17.3-3.7,35.1-10.2,50l-47.5-50.2l43.9-54.8C264.7,111.4,269.7,129.2,269.7,149.5z M150,29.7
		c41.6,0,76.8,20.9,98.6,52.8c0,0-64.1,78.4-75.5,92.1c-10.7,12.7-13.8,18.6-23.1,18.6c-8.5,0-12.1-6-23-19.1
		C116.1,161,49.2,81.6,49.2,81.6C71.1,50.2,108.8,29.7,150,29.7z M42,93.1l46.1,56l-50,51.3c-6.8-15.1-10.6-33.2-10.6-50.9
		C27.4,128.7,32.7,110.3,42,93.1z M150,271.9c-46.1,0-87.6-25.7-108.1-63.6l51.5-52.8c0,0,23.3,28.8,32,39.4
		c3.3,4.1,10.3,12.6,24.5,12.6c13.6,0,21.7-8.5,25.1-12.7c8.7-10.5,32-39.3,32-39.3l48.8,51.5C235.6,245.6,196.6,271.9,150,271.9z"
		/>
	<path class="st1" d="M283.2,28c-7.7,0-14-6.3-14-14c0-7.7,6.3-14,14-14c7.7,0,14,6.3,14,14C297.2,21.7,290.9,28,283.2,28z
		 M283.2,2.3c-6.5,0-11.8,5.3-11.8,11.8c0,6.5,5.3,11.8,11.8,11.8c6.5,0,11.8-5.3,11.8-11.8C295,7.5,289.7,2.3,283.2,2.3z"/>
	<g>
		<path class="st1" d="M284.8,8.2c0.5,0,1,0.1,1.4,0.3c0.4,0.2,0.8,0.4,1.1,0.7c0.3,0.3,0.5,0.6,0.7,1c0.2,0.4,0.2,0.8,0.2,1.3
			c0,0.7-0.1,1.3-0.4,1.8c-0.3,0.5-0.8,0.9-1.4,1.2v0c0.3,0.1,0.6,0.2,0.8,0.4c0.2,0.2,0.4,0.4,0.5,0.6c0.1,0.2,0.2,0.5,0.3,0.8
			c0.1,0.3,0.1,0.6,0.1,0.9c0,0.2,0,0.4,0,0.7c0,0.3,0,0.5,0.1,0.8c0,0.3,0.1,0.5,0.1,0.7c0.1,0.2,0.2,0.4,0.3,0.6H286
			c-0.1-0.4-0.2-0.8-0.3-1.3c0-0.5-0.1-1-0.1-1.5c-0.1-0.6-0.3-1.1-0.6-1.3c-0.3-0.3-0.8-0.4-1.4-0.4H281v4.6h-2.6V8.2H284.8z
			 M283.9,13.5c0.6,0,1-0.1,1.3-0.4c0.3-0.3,0.4-0.7,0.4-1.3c0-0.6-0.1-1-0.4-1.2c-0.3-0.3-0.7-0.4-1.3-0.4H281v3.3H283.9z"/>
	</g>
</g>
</svg>
